<?xml version="1.0" encoding="utf-8"?>
<!-- Generator: Adobe Illustrator 23.0.5, SVG Export Plug-In . SVG Version: 6.00 Build 0)  -->
<svg version="1.1" id="Layer_1" xmlns="http://www.w3.org/2000/svg" xmlns:xlink="http://www.w3.org/1999/xlink" x="0px" y="0px"
	 viewBox="0 0 99.2 99.2" style="enable-background:new 0 0 99.2 99.2;" xml:space="preserve">
<style type="text/css">
	.st0{fill-rule:evenodd;clip-rule:evenodd;fill:#FFFFFF;}
	.st1{fill-rule:evenodd;clip-rule:evenodd;fill:#231F20;}
</style>
<rect class="st0" width="99.2" height="99.2"/>
<path class="st1" d="M49.6,10.6c-22,0-39.7,17.9-39.7,40c0,17.7,11.4,32.7,27.2,38c2,0.4,2.7-0.9,2.7-1.9c0-0.9-0.1-4.1-0.1-7.4
	c-11,2.4-13.3-4.8-13.3-4.8c-1.8-4.6-4.4-5.8-4.4-5.8c-3.6-2.5,0.3-2.5,0.3-2.5c4,0.3,6.1,4.1,6.1,4.1c3.6,6.1,9.3,4.4,11.6,3.3
	c0.3-2.6,1.4-4.4,2.5-5.4c-8.8-0.9-18.1-4.4-18.1-19.7c0-4.4,1.6-7.9,4.1-10.7c-0.4-1-1.8-5.1,0.4-10.6c0,0,3.4-1.1,10.9,4.1
	c3.2-0.9,6.6-1.3,9.9-1.3c3.4,0,6.8,0.5,9.9,1.3c7.6-5.2,10.9-4.1,10.9-4.1c2.2,5.5,0.8,9.6,0.4,10.6c2.6,2.8,4.1,6.4,4.1,10.7
	c0,15.4-9.3,18.7-18.1,19.7c1.4,1.3,2.7,3.6,2.7,7.4c0,5.4-0.1,9.7-0.1,11c0,1.1,0.7,2.3,2.7,1.9c15.8-5.3,27.2-20.3,27.2-38
	C89.4,28.5,71.5,10.6,49.6,10.6z"/>
</svg>
